#N canvas 121 197 738 527 12;
#X obj 116 252 *~;
#X obj 216 205 vline~;
#X obj 216 229 *~;
#X obj 152 367 dac~;
#X obj 105 183 lop~ 2000;
#X obj 138 323 freeverb~;
#X obj 105 207 hip~ 200;
#X obj 419 153 table \$0.expl 32000;
#X obj 448 200 noise~;
#X obj 448 224 expr~ if ($v1 < 0 \, -1 \, 1);
#X obj 453 253 tabwrite~ \$0.expl;
#X obj 385 223 bng 15 250 50 0 empty empty empty 17 7 0 10 -262144
-1 -1;
#X obj 97 122 tabread4~ \$0.expl;
#X obj 98 96 *~ 32000;
#X obj 98 72 phasor~ 0.5;
#X obj 368 181 loadbang;
#X obj 325 33 bng 50 250 50 0 empty empty empty 17 7 0 10 -262144 -1
-1;
#X msg 216 181 0 \, 1 6 \, 0 200 50;
#X obj 196 82 vline~;
#X msg 196 58 0.4 \, 0.7 200;
#X msg 296 327 dry 0.2 \, wet 0.03 \, roomsize 0.5 \, damping 1;
#X obj 182 463 writesf~ 2;
#X msg 355 431 start;
#X obj 365 398 spigot;
#X obj 411 430 del 1010;
#X msg 411 454 stop;
#X obj 417 367 tgl 15 0 empty empty empty 17 7 0 10 -262144 -1 -1 1
1;
#X msg 215 361 open /tmp/explosion1.wav;
#X connect 0 0 5 0;
#X connect 0 0 5 1;
#X connect 1 0 2 0;
#X connect 1 0 2 1;
#X connect 2 0 0 1;
#X connect 4 0 6 0;
#X connect 5 0 3 0;
#X connect 5 0 21 0;
#X connect 5 1 3 1;
#X connect 5 1 21 1;
#X connect 6 0 0 0;
#X connect 8 0 9 0;
#X connect 9 0 10 0;
#X connect 11 0 10 0;
#X connect 11 0 20 0;
#X connect 12 0 4 0;
#X connect 13 0 12 0;
#X connect 14 0 13 0;
#X connect 15 0 11 0;
#X connect 16 0 17 0;
#X connect 16 0 19 0;
#X connect 16 0 23 0;
#X connect 17 0 1 0;
#X connect 18 0 14 0;
#X connect 19 0 18 0;
#X connect 20 0 5 0;
#X connect 22 0 21 0;
#X connect 23 0 22 0;
#X connect 23 0 24 0;
#X connect 24 0 25 0;
#X connect 25 0 21 0;
#X connect 26 0 23 1;
#X connect 27 0 21 0;
