#N canvas 467 148 813 459 12;
#X obj 192 263 *~;
#X obj 179 210 *~ 0.125;
#X obj 28 168 *~;
#X obj 13 139 vline~;
#X obj 326 24 bng 15 250 50 0 empty empty empty 17 7 0 10 -262144 -1
-1;
#X obj 373 311 vline~;
#X msg 396 41 0;
#X obj 402 96 vline~;
#X obj 182 177 bandlimited/bl.pulse~ 0 2000 0;
#X obj 398 138 lop~ 10;
#X obj 158 79 vline~;
#X obj 161 111 lop~ 10;
#X msg 161 46 1 \, 0 0 100;
#X msg 402 72 0.5 \, 0.25 0 100;
#X obj 544 217 +~ 1;
#X obj 544 241 *~ 0.5;
#X msg 674 153 0;
#X obj 552 94 vline~;
#X obj 544 193 bandlimited/bl.sq~ 15 200 0;
#X msg 376 278 400 \, 280 500;
#X obj 544 289 +~;
#X obj 544 265 *~ 220;
#X msg 11 102 0 \, 1 5 \, 0 1000 50;
#X obj 553 118 *~;
#X obj 685 61 vline~;
#X msg 689 28 20 \, 2 1000;
#X obj 684 103 *~;
#X msg 556 61 1 \, 0 1000;
#X obj 553 142 *~ 18;
#X obj 553 166 +~ 2;
#X obj 603 285 +~ 1;
#X obj 603 309 *~ 0.5;
#X obj 603 261 bandlimited/bl.sq~ 15 200 0;
#X obj 603 357 +~;
#X obj 603 333 *~ 220;
#X obj 449 391 bandlimited/bl.pulse~ 0 2000 0;
#X obj 158 338 delwrite~ \$0.r 2000;
#X obj 264 276 *~;
#X obj 161 363 delread~ \$0.r 20;
#X obj 18 278 delread~ \$0.r 40;
#X obj 351 365 *~ 0.05;
#X obj 261 232 delread~ \$0.r 50;
#X obj 316 262 *~ 0.59;
#X obj 240 5 r expl;
#X obj 37 388 dac~;
#X obj 93 333 *~ 0.2;
#X obj 47 313 *~ 0.2;
#X obj 111 429 writesf~ 2;
#X msg 122 401 open /tmp/death1.wav;
#X msg 284 397 start;
#X obj 294 364 spigot;
#X obj 340 396 del 1010;
#X msg 340 420 stop;
#X obj 346 333 tgl 15 0 empty empty empty 17 7 0 10 -262144 -1 -1 1
1;
#X connect 0 0 45 0;
#X connect 0 0 46 0;
#X connect 1 0 0 0;
#X connect 2 0 0 1;
#X connect 2 0 37 1;
#X connect 3 0 2 0;
#X connect 3 0 2 1;
#X connect 4 0 19 0;
#X connect 4 0 6 0;
#X connect 4 0 12 0;
#X connect 4 0 22 0;
#X connect 4 0 16 0;
#X connect 4 0 27 0;
#X connect 4 0 25 0;
#X connect 4 0 50 0;
#X connect 5 0 20 1;
#X connect 5 0 33 1;
#X connect 6 0 13 0;
#X connect 7 0 9 0;
#X connect 8 0 1 0;
#X connect 9 0 8 2;
#X connect 9 0 35 2;
#X connect 10 0 11 0;
#X connect 12 0 10 0;
#X connect 13 0 7 0;
#X connect 14 0 15 0;
#X connect 15 0 21 0;
#X connect 16 0 18 1;
#X connect 16 0 32 1;
#X connect 17 0 23 0;
#X connect 17 0 23 1;
#X connect 18 0 14 0;
#X connect 19 0 5 0;
#X connect 20 0 8 0;
#X connect 21 0 20 0;
#X connect 22 0 3 0;
#X connect 23 0 28 0;
#X connect 24 0 26 0;
#X connect 24 0 26 1;
#X connect 25 0 24 0;
#X connect 26 0 32 0;
#X connect 27 0 17 0;
#X connect 28 0 29 0;
#X connect 29 0 18 0;
#X connect 30 0 31 0;
#X connect 31 0 34 0;
#X connect 32 0 30 0;
#X connect 33 0 35 0;
#X connect 34 0 33 0;
#X connect 35 0 40 0;
#X connect 37 0 36 0;
#X connect 38 0 45 0;
#X connect 39 0 46 0;
#X connect 40 0 37 0;
#X connect 41 0 42 0;
#X connect 42 0 36 0;
#X connect 43 0 4 0;
#X connect 45 0 44 1;
#X connect 45 0 47 1;
#X connect 46 0 44 0;
#X connect 46 0 47 0;
#X connect 48 0 47 0;
#X connect 49 0 47 0;
#X connect 50 0 49 0;
#X connect 50 0 51 0;
#X connect 51 0 52 0;
#X connect 52 0 47 0;
#X connect 53 0 50 1;
