#N canvas 596 23 505 561 12;
#X obj 169 182 delread4~ \$0.d1;
#X obj 89 22 noise~;
#X obj 118 87 lop~ 900;
#X obj 101 439 dac~;
#X obj 98 59 *~;
#X obj 164 42 vline~;
#X obj 156 113 delwrite~ \$0.d1 20000;
#X obj 324 96 vline~;
#X obj 274 31 bng 15 250 50 0 empty empty empty 17 7 0 10 -262144 -1
-1;
#X msg 320 72 20 \, 1 200;
#X msg 160 18 1 \, 0 0 20;
#X obj 156 267 expr~ floor(8*$v1)/8;
#X obj 250 346 vline~;
#X obj 107 356 *~;
#X msg 246 322 0 \, 1 10 \, 0 20 500;
#X obj 111 187 *~ 0.9;
#X obj 291 417 writesf~;
#X obj 180 407 env~;
#X floatatom 178 514 5 0 0 0 - - -;
#X obj 191 457 max;
#X obj 197 482 t f f, f 4;
#X msg 227 436 0;
#X obj 203 371 *~ 1;
#X msg 386 281 start;
#X msg 390 326 stop;
#X obj 357 219 spigot;
#X obj 416 184 tgl 15 0 empty empty empty 17 7 0 10 -262144 -1 -1 0
1;
#X msg 338 378 open -bytes 3 /tmp/foo.wav;
#X obj 388 251 del 522;
#X connect 0 0 15 0;
#X connect 1 0 4 0;
#X connect 2 0 6 0;
#X connect 4 0 2 0;
#X connect 5 0 4 1;
#X connect 7 0 0 0;
#X connect 8 0 10 0;
#X connect 8 0 9 0;
#X connect 8 0 14 0;
#X connect 8 0 25 0;
#X connect 9 0 7 0;
#X connect 10 0 5 0;
#X connect 11 0 13 0;
#X connect 12 0 22 0;
#X connect 13 0 3 0;
#X connect 13 0 3 1;
#X connect 13 0 17 0;
#X connect 13 0 16 0;
#X connect 14 0 12 0;
#X connect 15 0 2 0;
#X connect 15 0 11 0;
#X connect 17 0 19 0;
#X connect 19 0 20 0;
#X connect 20 0 18 0;
#X connect 20 1 19 1;
#X connect 21 0 19 1;
#X connect 22 0 13 1;
#X connect 23 0 16 0;
#X connect 24 0 16 0;
#X connect 25 0 23 0;
#X connect 25 0 28 0;
#X connect 26 0 25 1;
#X connect 27 0 16 0;
#X connect 28 0 24 0;
